<?xml version="1.0" standalone="no"?>
<!DOCTYPE svg PUBLIC "-//W3C//DTD SVG 20010904//EN"
 "http://www.w3.org/TR/2001/REC-SVG-20010904/DTD/svg10.dtd">
<svg version="1.0" xmlns="http://www.w3.org/2000/svg"
 width="593.000000pt" height="248.000000pt" viewBox="0 0 593.000000 248.000000"
 preserveAspectRatio="xMidYMid meet">
<metadata>
Created by potrace 1.15, written by Peter Selinger 2001-2017
</metadata>
<g transform="translate(0.000000,248.000000) scale(0.100000,-0.100000)"
fill="#000000" stroke="none">
<path d="M4000 1563 l0 -847 -50 49 -50 49 -65 -64 -65 -64 -63 62 c-34 34
-66 62 -70 62 -5 0 -36 -27 -70 -60 l-61 -60 -73 72 -73 72 -65 -64 -65 -65
-300 300 -299 299 -23 -20 c-12 -10 -79 -74 -148 -141 -68 -68 -126 -123 -127
-123 -2 0 -3 189 -3 420 0 273 -3 420 -10 420 -7 0 -10 -151 -10 -433 l0 -432
-145 -145 -145 -145 -65 65 -65 65 -305 -305 -305 -305 -304 304 c-167 167
-306 299 -309 294 -3 -5 133 -148 303 -318 l310 -310 300 300 c166 165 303
302 306 304 2 3 34 -24 69 -59 l65 -65 303 303 302 302 295 -295 295 -295
-233 -233 c-127 -127 -232 -239 -232 -247 0 -8 137 122 305 290 l305 305 65
-65 65 -65 -235 -235 c-214 -214 -254 -258 -225 -248 5 1 112 105 238 231 126
125 234 227 239 227 5 0 33 -25 63 -55 l55 -55 -175 -175 c-96 -96 -170 -175
-165 -175 6 0 86 74 179 165 92 91 171 165 175 165 3 0 76 -70 161 -155 85
-85 162 -155 170 -155 8 0 -59 74 -150 165 l-165 165 58 57 57 58 235 -235
c129 -129 238 -231 242 -227 4 4 -99 114 -228 245 l-236 237 59 55 59 54 299
-299 c165 -165 303 -296 307 -292 4 4 -103 118 -237 252 l-245 245 290 290
c159 160 294 290 300 290 5 0 144 -134 307 -297 163 -163 301 -294 305 -290 8
8 -596 617 -612 617 -5 0 -142 -132 -302 -292 l-293 -293 0 848 c0 558 -3 847
-10 847 -7 0 -10 -289 -10 -847z m-300 -838 l55 -55 -58 -58 -57 -57 -57 57
-58 58 55 55 c30 30 57 55 60 55 3 0 30 -25 60 -55z"/>
<path d="M4571 1647 c-69 -35 -86 -127 -34 -179 74 -74 193 -26 193 78 0 41
-29 85 -65 100 -42 17 -63 17 -94 1z"/>
<path d="M1258 1292 c-15 -2 -41 -16 -58 -32 -26 -24 -30 -35 -30 -78 0 -45 4
-53 35 -81 51 -45 104 -44 151 3 41 41 46 92 14 144 -11 17 -21 32 -22 32 -2
0 -17 3 -33 8 -17 4 -42 6 -57 4z"/>
<path d="M1963 595 c-34 -24 -47 -76 -29 -118 17 -42 41 -57 90 -57 49 0 86
34 93 87 5 37 2 45 -25 73 -35 34 -92 41 -129 15z m116 -31 c12 -15 21 -37 21
-49 0 -38 -37 -75 -75 -75 -48 0 -79 29 -79 75 0 71 90 104 133 49z"/>
<path d="M1963 375 c-32 -23 -48 -79 -33 -116 17 -40 47 -59 92 -59 52 0 88
33 95 87 5 37 2 45 -25 73 -35 34 -92 41 -129 15z m116 -31 c12 -15 21 -37 21
-49 0 -38 -37 -75 -75 -75 -48 0 -79 29 -79 75 0 71 90 104 133 49z"/>
</g>
</svg>
